<svg width="109" height="18" viewBox="0 0 109 18" fill="none" xmlns="http://www.w3.org/2000/svg">
<g clip-path="url(#clip0_666_1722)">
<path d="M0 1.65213C0 0.887964 0.568758 0.369858 1.45946 0.369858H5.71364C9.57231 0.369858 12.1938 2.49043 12.1938 5.59754C12.1938 8.70465 9.59684 10.9238 5.71364 10.9238H5.12036C3.63637 10.9238 2.86985 11.688 2.86985 12.9213V16.3983C2.86985 17.3848 2.3011 18.0008 1.43569 18.0008C0.570291 18.0008 0 17.3833 0 16.3975V1.65213ZM2.86909 6.06597C2.86909 7.61953 3.6609 8.35924 5.16942 8.35924H5.54041C7.66751 8.35924 9.22584 7.4965 9.22584 5.59754C9.22584 3.69858 7.66751 2.83583 5.54041 2.83583H5.16942C3.6609 2.83583 2.86909 3.57555 2.86909 5.1291V6.06597ZM12.1938 16.6444C12.1938 17.4582 12.7626 18.0008 13.628 18.0008C14.1967 18.0008 14.7164 17.6309 15.0131 16.8667L15.5328 15.4859C15.9536 14.3763 16.6956 13.8582 17.5112 13.8582H22.2107C23.027 13.8582 23.769 14.3763 24.1891 15.4859L24.7088 16.8667C25.0054 17.6309 25.5251 18.0008 26.0939 18.0008C26.9593 18.0008 27.5281 17.4582 27.5281 16.6444C27.5281 16.4228 27.4782 16.1515 27.3794 15.8802L21.7654 1.33118C21.4189 0.443218 20.6278 0 19.8605 0C19.0933 0 18.3022 0.443982 17.9557 1.33118L12.341 15.8794C12.2421 16.1507 12.1923 16.422 12.1923 16.6436L12.1938 16.6444ZM17.6599 10.0358C17.6599 9.76455 17.7342 9.51772 17.8576 9.14787L18.9208 6.21346C19.1186 5.64644 19.465 5.37516 19.8605 5.37516C20.2561 5.37516 20.6025 5.64644 20.8003 6.21346L21.8635 9.14787C21.9869 9.51772 22.0612 9.76455 22.0612 10.0358C22.0612 10.7755 21.6404 11.2937 20.5274 11.2937H19.1921C18.0792 11.2937 17.6583 10.7755 17.6583 10.0358H17.6599ZM26.5883 1.7018C26.5883 0.912418 27.1571 0.370622 28.0723 0.370622H39.4497C40.365 0.370622 40.9337 0.913182 40.9337 1.7018C40.9337 2.49043 40.365 3.03299 39.4497 3.03299H37.5449C36.0364 3.03299 35.2201 3.79716 35.2201 5.54787V16.3723C35.2201 17.3833 34.6513 18 33.7606 18C32.8699 18 32.3012 17.3833 32.3012 16.3723V5.54787C32.3012 3.79716 31.4848 3.03299 29.9763 3.03299H28.0715C27.1563 3.03299 26.5875 2.49043 26.5875 1.7018H26.5883ZM43.6051 16.3975C43.6051 17.3841 44.1738 18 45.0392 18C45.9046 18 46.4734 17.3833 46.4734 16.3975V12.4774C46.4734 11.3678 47.1165 10.8993 47.9075 10.8993H48.1053C48.625 10.8993 49.1439 11.2195 49.4659 11.6887L53.2257 17.1877C53.5721 17.7058 54.0175 18.0015 54.5862 18.0015C55.3282 18.0015 55.9215 17.3848 55.9215 16.6451C55.9215 16.3494 55.8226 16.0284 55.6003 15.7083L53.1023 12.2068C52.8056 11.7873 52.6814 11.4427 52.6814 11.1469C52.6814 10.5302 53.2257 10.087 53.8688 9.61783C55.0316 8.75508 56.2925 7.62029 56.2925 5.45082C56.2925 2.41783 53.9178 0.371386 50.0101 0.371386H45.0385C44.1478 0.371386 43.6043 0.889493 43.6043 1.65366V16.3991L43.6051 16.3975ZM46.4741 5.84436V5.10465C46.4741 3.50219 47.315 2.83583 48.6012 2.83583H49.8376C51.9647 2.83583 53.3253 3.62522 53.3253 5.44929C53.3253 7.27336 51.8911 8.11242 49.764 8.11242H48.6012C47.315 8.11242 46.4741 7.44683 46.4741 5.8436V5.84436ZM59.9542 16.3486V1.65213C59.9542 0.887964 60.4984 0.369858 61.3883 0.369858H70.7376C71.6283 0.369858 72.1718 0.887964 72.1718 1.65213C72.1718 2.4163 71.6275 2.93441 70.7376 2.93441H64.8262C63.6634 2.93441 62.8225 3.62445 62.8225 4.93195V5.47451C62.8225 6.78124 63.6634 7.47204 64.8262 7.47204H69.4015C70.2922 7.47204 70.8357 7.99015 70.8357 8.75432C70.8357 9.51849 70.2915 10.0366 69.4015 10.0366H64.9986C63.8358 10.0366 62.8225 10.7519 62.8225 12.2061V12.8961C62.8225 14.3511 63.8366 15.0656 64.9986 15.0656H70.7368C71.6275 15.0656 72.171 15.5837 72.171 16.3479C72.171 17.112 71.6268 17.6301 70.7368 17.6301H61.3876C60.4969 17.6301 59.9534 17.112 59.9534 16.3479L59.9542 16.3486ZM73.8788 9.00038C73.8788 3.67412 77.8854 0.000764169 82.5849 0.000764169C87.2845 0.000764169 91.2911 3.67489 91.2911 9.00038C91.2911 14.3259 87.2845 18 82.5849 18C77.8854 18 73.8788 14.3259 73.8788 9.00038ZM77.1434 9.00038C77.1434 12.7486 79.3694 15.1397 82.5849 15.1397C85.8005 15.1397 88.0257 12.7479 88.0257 9.00038C88.0257 5.2529 85.7997 2.86105 82.5849 2.86105C79.3701 2.86105 77.1434 5.22844 77.1434 9.00038ZM94.7289 16.3975C94.7289 17.3841 95.2969 18 96.1631 18C97.0293 18 97.598 17.3833 97.598 16.3975V8.85213C97.598 7.93971 98.1415 7.49573 98.711 7.49573C99.1556 7.49573 99.5266 7.74256 99.7995 8.18578L104.548 16.101C105.191 17.1862 105.784 18 106.997 18C108.21 18 109 17.1617 109 15.8053V1.60246C109 0.61592 108.43 0 107.565 0C106.7 0 106.131 0.616684 106.131 1.60246V9.14787C106.131 10.0603 105.586 10.5043 105.018 10.5043C104.573 10.5043 104.202 10.2574 103.929 9.81422L99.1809 1.89896C98.537 0.81384 97.9445 0 96.7318 0C95.5192 0 94.7289 0.838293 94.7289 2.19469V16.3975Z" fill="white"/>
</g>
<defs>
<clipPath id="clip0_666_1722">
<rect width="109" height="18" fill="white"/>
</clipPath>
</defs>
</svg>
