<svg width="32" height="32" viewBox="0 0 32 32" fill="none" xmlns="http://www.w3.org/2000/svg">
<g clip-path="url(#clip0_666_1750)">
<path d="M16 0C7.16398 0 0 7.16398 0 16C0 24.836 7.16398 32 16 32C24.836 32 32 24.836 32 16C32 7.16398 24.8379 0 16 0ZM23.3245 23.1028C23.1277 23.4315 22.7799 23.613 22.4225 23.613C22.2391 23.613 22.0518 23.5653 21.8818 23.4621C15.5815 19.6728 8.11179 21.8646 8.03726 21.8875C7.4831 22.0557 6.89454 21.7423 6.72638 21.1862C6.55822 20.6301 6.8697 20.0454 7.42386 19.8753C7.764 19.7721 15.8452 17.3778 22.9652 21.6601C23.4621 21.9601 23.6226 22.606 23.3245 23.1028ZM25.3118 18.6734C25.0825 19.0727 24.664 19.2963 24.2341 19.2963C24.0239 19.2963 23.8118 19.2428 23.6169 19.1301C15.7019 14.5783 7.7277 17.2287 7.64744 17.2555C6.99773 17.4771 6.29261 17.1332 6.06903 16.4835C5.84737 15.8338 6.19324 15.1286 6.84104 14.9051C7.20984 14.7789 15.9713 11.8686 24.8532 16.9765C25.4475 17.3185 25.652 18.0772 25.3099 18.6734H25.3118ZM26.2004 14.4006C25.9615 14.4006 25.7169 14.3432 25.4915 14.2248C16.3669 9.43222 6.99582 12.3024 6.90219 12.3311C6.09769 12.5852 5.23779 12.1381 4.98364 11.3336C4.72949 10.5291 5.17664 9.66917 5.98113 9.41502C6.41299 9.27935 16.6726 6.13973 26.9132 11.517C27.6603 11.9088 27.9489 12.8336 27.5552 13.5808C27.282 14.1006 26.7507 14.3987 26.2004 14.3987V14.4006Z" fill="white"/>
</g>
<defs>
<clipPath id="clip0_666_1750">
<rect width="32" height="32" fill="white"/>
</clipPath>
</defs>
</svg>
