<svg width="28" height="32" viewBox="0 0 28 32" fill="none" xmlns="http://www.w3.org/2000/svg">
<g clip-path="url(#clip0_2447_3628)">
<path d="M28.0004 13.2636V7.66123C20.6673 7.35213 20.412 0.698232 20.412 0.0717551V0H14.6887V21.8439C14.6887 24.3195 12.682 26.3231 10.1923 26.3231C7.70262 26.3231 5.6931 24.3139 5.69587 21.8384C5.69587 19.3628 7.7276 17.3592 10.2173 17.3592C10.6614 17.3592 11.086 17.4254 11.5357 17.5524V11.7734C5.94013 11.053 0.813638 14.9747 0.0864374 20.5357C-0.640763 26.0968 3.30055 31.1914 8.89334 31.9144C14.4861 32.6375 19.6098 28.7158 20.3343 23.1548C20.412 22.5559 20.4092 22.0012 20.4092 21.4216V10.6777C23.046 13.0622 27.9976 13.2664 27.9976 13.2664L28.0004 13.2636Z" fill="white"/>
</g>
<defs>
<clipPath id="clip0_2447_3628">
<rect width="28" height="32" fill="white"/>
</clipPath>
</defs>
</svg>
