<svg width="22" height="22" viewBox="0 0 22 22" fill="none" xmlns="http://www.w3.org/2000/svg">
<path d="M7.94164 1.41446C9.2344 1.41479 10.498 1.80012 11.5728 2.52171C12.6475 3.24329 13.485 4.26874 13.9795 5.46838C14.474 6.66801 14.6032 7.98797 14.3507 9.26133C14.0983 10.5347 13.4755 11.7043 12.5613 12.6222C11.647 13.5402 10.4822 14.1652 9.21428 14.4183C7.94631 14.6714 6.63209 14.5413 5.43779 14.0443C4.24349 13.5473 3.22274 12.7058 2.50461 11.6262C1.78649 10.5465 1.40324 9.27731 1.40332 7.97895C1.40338 7.11672 1.57255 6.26295 1.90118 5.4664C2.2298 4.66984 2.71145 3.94611 3.3186 3.33652C3.92576 2.72693 4.64653 2.24344 5.43976 1.91365C6.23299 1.58386 7.08313 1.41423 7.94164 1.41446ZM7.94164 0.00172523C6.10886 0.00289152 4.33283 0.640283 2.91437 1.80593C1.49591 2.97158 0.522239 4.59383 0.158279 6.39788C-0.205681 8.20194 0.0624473 10.0769 0.917247 11.7051C1.77205 13.3334 3.16097 14.6148 4.84874 15.3324C6.79031 16.1563 8.97822 16.1717 10.9311 15.3754C12.8841 14.5791 14.4421 13.0363 15.2623 11.0863C16.0826 9.13633 16.098 6.93895 15.3052 4.97756C14.5123 3.01617 12.9761 1.45145 11.0345 0.627608C10.0561 0.211553 9.00415 -0.0019063 7.94164 1.28263e-05V0.00172523Z" fill="white"/>
<path d="M13.8291 12.7854L12.8274 13.7917L20.9982 22L22 20.9937L13.8291 12.7854Z" fill="white"/>
</svg>
