<svg width="224" height="80" viewBox="0 0 224 80" fill="none" xmlns="http://www.w3.org/2000/svg">
<g id="logo 2">
<path id="Vector" d="M123.141 10.9493H116.402V35.4797C116.402 37.9429 118.413 39.9397 120.895 39.9397H138.867V33.2496H123.141V10.9493Z" fill="#FE3652"/>
<path id="Vector_2" d="M143.36 10.9494H145.607C148.088 10.9494 150.1 12.9462 150.1 15.4094V17.6395H143.36V10.9494Z" fill="#FE3652"/>
<path id="Vector_3" d="M150.1 39.9398H143.36V22.0995H150.1V39.9398Z" fill="#FE3652"/>
<path id="Vector_4" d="M159.086 10.9494C156.605 10.9494 154.593 12.9462 154.593 15.4094V17.6395H181.552V10.9494H159.086Z" fill="#FE3652"/>
<path id="Vector_5" d="M154.593 39.9398V26.5596C154.593 24.0964 156.605 22.0995 159.086 22.0995H181.552V28.7896H161.333V39.9398H154.593Z" fill="#FE3652"/>
<path id="Vector_6" d="M186.045 22.0995H213.003V28.7896H186.045V22.0995Z" fill="#FE3652"/>
<path id="Vector_7" d="M186.045 33.2497V35.4797C186.045 37.9429 188.056 39.9398 190.538 39.9398H213.003V33.2497H186.045Z" fill="#FE3652"/>
<path id="Vector_8" d="M213.003 10.9494V17.6395H186.045V15.4094C186.045 12.9462 188.056 10.9494 190.538 10.9494H213.003Z" fill="#FE3652"/>
<path id="Vector_9" d="M10.9967 15.4094C10.9967 12.9462 13.0076 10.9493 15.4882 10.9493H37.9458V17.6394H17.734V33.2496H37.9458V39.9397H15.4882C13.0076 39.9397 10.9967 37.9429 10.9967 35.4797V15.4094Z" fill="#FE3652"/>
<path id="Vector_10" d="M96.3354 10.9493C98.816 10.9493 100.827 12.9462 100.827 15.4094V24.3295C100.827 26.7927 98.816 28.7896 96.3354 28.7896C98.816 28.7896 100.827 30.7864 100.827 33.2496V39.9174H94.0897V33.2496C94.0897 30.7864 92.0788 28.7896 89.5982 28.7896H73.8779V26.5595C73.8779 24.0963 75.8888 22.0995 78.3694 22.0995H94.0897V17.6394H73.8779V10.9493H96.3354Z" fill="#FE3652"/>
<path id="Vector_11" d="M73.8779 33.2497H80.6151V39.9398H73.8779V33.2497Z" fill="#FE3652"/>
<path id="Vector_12" d="M69.3864 10.9494V17.6395H42.4373V15.4094C42.4373 12.9462 44.4482 10.9494 46.9288 10.9494H69.3864Z" fill="#FE3652"/>
<path id="Vector_13" d="M42.4373 26.5596C42.4373 24.0964 44.4482 22.0995 46.9288 22.0995H69.3864V39.9398H62.6491V28.7896H49.1746V39.9398H42.4373V26.5596Z" fill="#FE3652"/>
<path id="Vector_14" d="M74.2148 49.117H161.635V70.755H74.2148V49.117Z" fill="#FE3652"/>
<path id="Vector_15" fill-rule="evenodd" clip-rule="evenodd" d="M86.8864 60.4785C86.8864 60.308 86.8864 60.1864 86.8626 60.0645C86.6966 61.5013 86.4838 62.9382 85.9629 64.3015C86.3653 63.8391 86.8864 61.6232 86.8864 60.4785ZM83.3824 61.0143C83.4056 60.9898 83.4534 60.9659 83.4769 60.9415C84.2108 60.1622 85.063 59.5779 86.0342 59.1394C86.247 59.0424 86.294 58.8717 86.294 58.6525V58.3115C86.294 57.727 86.247 57.1676 86.176 56.6316C86.1285 56.2662 86.0577 55.9493 85.9394 55.6086C85.8682 55.3411 85.7972 55.2192 85.6789 55.2192C85.5841 55.2192 85.4656 55.2922 85.3 55.4383C85.0872 55.6572 84.8737 55.8765 84.7317 56.1201C83.8557 57.4834 83.4056 58.9933 83.2638 60.6004V60.7707C83.2638 60.8684 83.2638 60.9415 83.3348 60.9898C83.3586 61.0143 83.3586 61.0143 83.3824 61.0143ZM83.1216 65.8117C83.2166 66.2494 83.3113 66.4446 83.4769 66.4446C83.6189 66.4446 83.7847 66.3471 83.998 66.1524C84.5424 65.7137 84.9212 65.1294 85.229 64.4965C85.8209 63.2792 86.0577 61.9643 86.1997 60.6249V60.4544C86.1997 60.3327 86.176 60.2841 86.105 60.2841C86.0812 60.2841 86.0342 60.308 85.9865 60.3327C85.8919 60.3813 85.7972 60.4544 85.7024 60.5274C84.9212 61.0875 84.2583 61.7935 83.7612 62.6702C83.3113 63.4251 83.0983 64.2776 83.0508 65.1541C83.0508 65.3729 83.0745 65.5921 83.1216 65.8117ZM82.1751 64.6184C82.1751 64.74 82.1751 64.8372 82.1986 64.9347C82.2694 64.2776 82.4591 63.6933 82.6009 63.084C82.3406 63.4739 82.1751 64.1068 82.1751 64.6184ZM82.0565 45.6004C81.7725 46.1122 81.3699 50.4709 81.3699 52.3457C81.3699 52.5648 81.3699 52.7598 81.3936 52.9056C81.4884 50.4953 81.7725 48.0845 82.0565 45.6004ZM91.4084 58.9691C91.3844 58.9691 91.3609 58.9447 91.3374 58.9447C91.0296 58.8228 90.7455 58.7986 90.4375 58.7986C89.8456 58.7986 89.2537 58.9691 88.662 59.0908C88.449 59.1394 88.4252 59.2855 88.4252 59.4316V59.529C88.4252 60.4055 88.354 61.2825 88.1884 62.1589C87.9754 63.4011 87.573 64.5937 86.8389 65.6165C86.4126 66.2252 85.9394 66.7368 85.2763 67.0533C84.9687 67.1994 84.6609 67.2727 84.3531 67.2727C84.2108 67.2727 84.0688 67.2727 83.903 67.2236C83.4769 67.1261 83.0508 66.9556 82.6719 66.7612C82.1276 66.469 81.8905 65.9573 81.8197 65.3488C81.8197 65.2271 81.7962 65.1055 81.7962 64.9838C81.7962 64.4234 81.9145 63.8635 82.0803 63.3278C82.1276 63.2304 82.1751 63.1085 82.1986 63.011C82.2221 62.8891 82.2458 62.8163 82.2458 62.7677C82.2458 62.6702 82.1751 62.646 81.9853 62.573C81.7962 62.4997 81.6777 62.3536 81.6302 62.1345C81.3459 61.1117 81.1331 60.0645 80.9911 59.0175C80.7305 57.0943 80.6357 55.1945 80.6357 53.2711C80.6357 52.7112 80.6357 52.1264 80.6597 51.5667C80.707 49.5944 80.9673 47.6704 81.3224 45.7223C81.3936 45.3573 81.5122 45.1866 81.725 45.1866C81.8435 45.1866 81.9853 45.2357 82.1508 45.3083C82.4591 45.4301 82.7667 45.5767 83.0983 45.6737C83.3348 45.7712 83.4534 45.9419 83.4534 46.2096C83.4769 46.5262 83.4769 46.8672 83.4769 47.1836C83.4769 49.0829 83.3586 50.9821 83.2166 52.8572C83.1693 53.5876 83.1693 54.3427 83.1458 55.0726V55.2434C83.1458 55.3164 83.1458 55.3897 83.2401 55.4383H83.2876C83.3348 55.4383 83.3586 55.3897 83.4056 55.3411C83.4769 55.2678 83.5479 55.1703 83.6189 55.0975C83.7612 54.927 83.9267 54.7805 84.0923 54.6349C84.3763 54.4157 84.6609 54.2939 84.945 54.2939C85.1578 54.2939 85.3713 54.3427 85.6079 54.4641C85.8444 54.586 86.105 54.6835 86.3653 54.7805C87.0284 55.0001 87.4783 55.4625 87.7623 56.1201C88.0227 56.6556 88.1649 57.2401 88.2597 57.8244C88.2597 57.8975 88.283 57.9708 88.283 58.0194C88.354 58.3115 88.378 58.4088 88.567 58.4088C88.6145 58.4088 88.6856 58.3848 88.7566 58.3848C89.0171 58.3362 89.3012 58.3115 89.5615 58.3115C89.7273 58.3115 89.8693 58.3362 90.0354 58.3362C90.5797 58.3599 91.0296 58.6284 91.5505 58.8717C91.4792 58.9447 91.4557 58.9691 91.4084 58.9691Z" fill="white"/>
<path id="Vector_16" fill-rule="evenodd" clip-rule="evenodd" d="M96.2405 60.7089H96.2879V58.1958H96.2405V60.7089ZM96.335 67.9555C96.2405 68.1506 96.2405 68.3461 96.217 68.5415C96.1222 69.9567 95.957 71.3718 95.6027 72.7381C95.579 72.7871 95.5553 72.86 95.5553 72.9087C95.5553 72.9577 95.579 72.9819 95.6027 73.0309C95.7446 72.8358 95.7918 72.616 95.8387 72.4209C96.1222 71.0301 96.3116 69.6393 96.3116 68.1998V67.9555C96.3825 67.7606 96.3825 67.5411 96.3825 67.3457V64.1492H96.335V67.9555ZM95.6498 63.8323C95.6498 63.7343 95.6498 63.6124 95.6264 63.515C95.6027 63.4663 95.579 63.4178 95.5318 63.4178C95.5083 63.4178 95.4846 63.4416 95.4372 63.4663C95.3901 63.4908 95.3429 63.5637 95.2955 63.6124C94.776 64.3933 94.1379 65.0767 93.831 66.0041C93.5236 66.2477 93.5236 66.6623 93.3816 67.0043C92.7441 68.5904 92.3189 70.2248 92.1771 71.9573C92.1532 72.25 92.1532 72.543 92.1532 72.8358C92.1532 73.3478 92.1771 73.8604 92.2715 74.3727C92.3426 74.7874 92.4606 75.1778 92.6495 75.5682C92.7912 75.8612 92.8858 76.0076 93.0275 76.0076C93.1458 76.0076 93.2641 75.9099 93.4527 75.7633C93.7834 75.5195 94.0434 75.1778 94.2562 74.8363C94.7994 73.9091 95.1303 72.9087 95.319 71.8838C95.579 70.5175 95.6735 69.127 95.6735 67.7606C95.6735 67.3457 95.6735 66.9308 95.6498 66.5162V63.8323ZM91.4208 71.3228C91.4445 71.2252 91.4919 71.1522 91.5154 71.0788C91.6102 70.298 91.7754 69.5418 91.988 68.7853C92.0115 68.6876 92.0115 68.5904 92.0115 68.4925V68.3704C92.1771 68.224 92.2006 68.0289 92.2715 67.8338C92.626 66.9308 92.9564 66.0041 93.4293 65.1496C93.4527 65.1256 93.4764 65.0767 93.4764 65.0522C93.4764 65.0275 93.4764 65.0037 93.4293 64.9788C93.3112 65.0767 93.2641 65.2231 93.193 65.3694C92.8623 65.9792 92.6023 66.6139 92.3426 67.2478C92.2243 67.614 92.0591 67.9799 92.0115 68.3704C91.6337 69.322 91.4208 70.298 91.4208 71.3228C91.3739 71.5911 91.3502 71.8354 91.3502 72.1034C91.3502 72.4696 91.3739 72.8358 91.3974 73.2015V73.0309C91.3974 72.5915 91.4445 72.1766 91.4445 71.7619C91.4445 71.6156 91.4445 71.4692 91.4208 71.3228ZM90.7122 60.636C90.7593 59.3184 90.925 58.0252 91.0904 56.6587C90.8539 57.0248 90.665 58.7326 90.665 59.8796C90.665 60.1724 90.6887 60.4407 90.7122 60.636ZM100.233 59.0254C100.21 59.123 100.139 59.1475 100.068 59.1962C99.3828 59.5624 98.8159 60.099 98.2015 60.5873C97.9418 60.7821 97.9181 61.0751 97.9181 61.3681C97.9418 62.0755 97.9418 62.7831 97.9418 63.515V64.3933C97.9181 66.8574 97.8472 69.322 97.2803 71.7377C96.9968 72.9577 96.5951 74.1044 95.9098 75.1535C95.6027 75.6414 95.2249 76.0805 94.752 76.398C94.4451 76.5931 94.1379 76.7152 93.8073 76.7152C93.6179 76.7152 93.4527 76.6665 93.2641 76.6175C92.9801 76.5199 92.6967 76.4224 92.4369 76.3003C92.0115 76.1052 91.728 75.7148 91.5391 75.2999C91.1845 74.568 91.0667 73.787 91.0428 72.9819V72.4454C91.0428 70.298 91.5628 68.2974 92.4132 66.3453C92.6967 65.6622 93.0275 64.9788 93.4056 64.3198C93.9016 63.4416 94.5397 62.6852 95.2718 62.0026C95.5083 61.7828 95.6027 61.563 95.6027 61.246C95.579 60.7089 95.579 60.1724 95.579 59.6356V59.489C95.579 59.4158 95.579 59.3428 95.5318 59.2939C95.3664 59.3184 95.319 59.465 95.2483 59.5869C94.6814 60.636 94.1145 61.6849 93.4999 62.7102C93.4056 62.8808 93.3112 63.0269 93.2164 63.1736C92.9801 63.515 92.7441 63.6856 92.4369 63.6856C92.3189 63.6856 92.1532 63.6614 91.988 63.5885C91.6337 63.4663 91.3028 63.3197 90.9722 63.1978C90.6887 63.0759 90.4759 62.8561 90.3578 62.5633C90.1687 62.2219 90.0744 61.8315 90.0272 61.4411C89.9798 61.0262 89.9561 60.6115 89.9561 60.2211C89.9561 59.5135 90.0035 58.8303 90.0744 58.1471C90.0981 57.6103 90.1687 57.0733 90.2633 56.5612C90.3341 56.1951 90.4993 56 90.7122 56C90.8302 56 90.9722 56.0492 91.1374 56.1463C91.5628 56.3657 92.0115 56.5368 92.4369 56.6834C92.7206 56.8055 92.8147 56.9514 92.8147 57.2444V57.391C92.8147 57.8057 92.7441 58.1958 92.6967 58.6107L92.4841 60.5873V60.7581C92.4841 60.8066 92.4841 60.8556 92.5078 60.9043H92.5789C92.673 60.9043 92.6967 60.8311 92.7441 60.7581C93.7362 59.172 94.752 57.6103 95.6735 56C95.7918 55.7802 95.8624 55.5364 95.957 55.3168C96.0042 55.1947 96.099 55.1217 96.1933 55.1217C96.2405 55.1217 96.2879 55.146 96.335 55.1704C96.5951 55.3902 96.9257 55.4389 97.2092 55.5608C97.4926 55.683 97.6346 55.8536 97.6583 56.1951C97.7055 57.1954 97.8003 58.1958 97.8707 59.172C97.8707 59.2452 97.8707 59.2939 97.8944 59.3428C97.9181 59.489 97.9418 59.5624 98.0126 59.5624C98.0596 59.5624 98.107 59.5379 98.1778 59.489C98.343 59.3918 98.5087 59.2697 98.6976 59.1475C98.7922 59.0741 98.8865 59.0254 98.9813 58.9769C99.2411 58.8303 99.4063 58.7326 99.5717 58.7326C99.7371 58.7326 99.9263 58.8303 100.233 59.0254Z" fill="white"/>
<path id="Vector_17" fill-rule="evenodd" clip-rule="evenodd" d="M127.055 55.6008C127.055 55.6008 127.079 55.6008 127.079 55.5763C127.055 55.5763 127.055 55.5521 127.055 55.5521C127.055 55.5521 127.031 55.5521 127.031 55.5763V55.6008H127.055ZM126.747 57.9179L126.818 57.43C126.747 57.5276 126.7 57.6253 126.7 57.7226L126.747 57.9179ZM126.297 55.9668L126.321 55.9421L126.297 55.8934L126.273 55.9181L126.297 55.9668ZM125.799 51.6009V51.5766C125.799 51.5524 125.775 51.5524 125.775 51.5524L125.799 51.6009ZM125.61 62.2105C125.799 61.9423 125.894 61.6252 125.918 61.2839C126.036 61.0884 126.084 60.8934 126.084 60.6497C126.321 60.186 126.368 59.6497 126.463 59.1373C126.321 59.6497 126.107 60.1373 126.084 60.6739C125.965 60.8202 125.918 60.9908 125.918 61.186V61.2839C125.704 61.5518 125.681 61.8934 125.61 62.2105ZM124.97 63.5518L125.041 63.4544C125.041 63.4297 125.041 63.4297 125.017 63.4297C124.946 63.4544 124.946 63.4789 124.946 63.5276C124.946 63.5518 124.946 63.5518 124.97 63.5518ZM124.898 64.4057C124.946 64.3568 124.97 64.2838 124.97 64.2104V64.137C125.112 63.9912 125.159 63.7957 125.183 63.6002C125.041 63.7715 124.993 63.9423 124.993 64.137C124.922 64.186 124.875 64.2349 124.875 64.3076L124.898 64.4057ZM124.756 62.6497C124.875 62.5276 124.898 62.4297 124.898 62.3079V62.2349C125.159 61.6497 125.349 61.0399 125.396 60.4055C125.657 59.8692 125.752 59.2837 125.823 58.6742C125.894 58.5521 125.918 58.4055 125.918 58.235C125.989 58.1129 126.012 57.9668 126.012 57.8203C126.06 57.7226 126.084 57.6253 126.084 57.5276L126.06 57.3566C126.178 57.2108 126.155 57.0155 126.178 56.869L126.202 56.6984L126.178 56.6008C126.178 56.9668 126.084 57.04 126.084 57.3566C126.012 57.4547 125.989 57.5521 125.989 57.6492L126.012 57.8203C125.941 57.8934 125.894 57.991 125.894 58.1129L125.918 58.2594C125.846 58.3326 125.823 58.4055 125.823 58.5031L125.846 58.6742C125.61 59.235 125.491 59.8202 125.396 60.4055C125.159 60.9908 124.97 61.6005 124.898 62.2349C124.78 62.3326 124.756 62.4544 124.756 62.6497ZM124.543 65.3323L124.567 65.3076L124.614 65.1617H124.567C124.543 65.186 124.496 65.2349 124.496 65.2838L124.543 65.3323ZM123.69 67.2838L124.117 66.4297L124.022 66.381L123.619 67.2589L123.69 67.2838ZM123.382 66.3323L123.453 66.2589V66.137C123.69 65.8204 123.832 65.4786 123.88 65.0883C124.022 64.9912 124.045 64.8444 124.069 64.6736C124.283 64.2838 124.401 63.8691 124.52 63.4297C124.306 63.8202 124.117 64.2104 124.045 64.6494C123.927 64.7712 123.88 64.942 123.88 65.1131C123.667 65.4057 123.524 65.747 123.477 66.137C123.358 66.2344 123.406 66.1617 123.334 66.2838C123.334 66.3076 123.334 66.3323 123.382 66.3323ZM121.865 67.8201C121.937 67.7957 121.937 67.747 121.937 67.6981V67.6004C122.055 67.5515 122.126 67.4296 122.174 67.3078C124.188 63.5031 125.42 58.43 125.823 54.3816L125.846 53.9182L125.799 53.284C125.752 53.6008 125.728 53.9422 125.704 54.2595C125.254 58.43 124.188 62.6005 122.505 66.3565C122.34 66.7712 122.079 67.1617 121.937 67.6004C121.889 67.6491 121.842 67.6981 121.842 67.747L121.865 67.8201ZM114.235 55.5037V55.4787L114.211 55.5037H114.235ZM114.069 57.3326V57.3082H114.046L114.069 57.3326ZM112.434 67.8688H112.458V67.4054H112.434V67.8688ZM112.434 59.1618C112.481 56.9911 112.576 54.8448 112.742 52.6742C112.766 52.3569 112.766 52.04 112.766 51.7229L112.718 51.6743C112.695 51.6743 112.695 51.6743 112.671 51.5766C112.529 53.6742 112.41 55.6742 112.41 57.6742L112.434 59.1618ZM112.387 60.43L112.41 60.4055L112.387 60.3326L112.363 60.381L112.387 60.43ZM112.387 59.8934C112.41 59.8934 112.434 59.8692 112.434 59.8447L112.387 59.7958L112.363 59.8447L112.387 59.8934ZM112.339 65.0883H112.387V60.9423H112.339V65.0883ZM112.031 52.4303L112.055 52.3816L112.031 52.2348L112.007 52.3569C112.007 52.3816 112.007 52.4061 112.031 52.4303ZM111.936 54.211L111.96 54.1861V53.5766H111.936V54.211ZM109.567 70.8201C109.59 70.8201 109.59 70.8201 109.59 70.7954L109.567 70.7467L109.543 70.7954L109.567 70.8201ZM109.377 69.7225L109.424 69.6249L109.377 69.6004C109.354 69.6249 109.354 69.6736 109.33 69.7225H109.377ZM109.164 53.1377C109.354 52.9422 109.472 52.6742 109.519 52.4061C109.354 52.6256 109.211 52.8692 109.164 53.1377ZM109.14 52.6256L109.164 52.5766C109.164 52.5766 109.164 52.5522 109.14 52.5522L109.116 52.6008L109.14 52.6256ZM108.5 71.0151C108.548 70.5275 108.737 70.0883 108.785 69.6004C108.619 69.9422 108.453 70.3078 108.453 70.698L108.5 71.0151ZM107.932 55.9668C108.098 55.3082 108.334 54.7474 108.453 54.1619C108.619 53.9182 108.713 53.6495 108.785 53.3816C108.856 53.284 108.927 53.1861 108.927 53.0156V52.9422C108.856 53.089 108.785 53.2111 108.785 53.3329V53.3816C108.548 53.5766 108.5 53.8692 108.429 54.1376C108.169 54.6255 107.932 55.4303 107.932 55.869V55.9668ZM107.813 57.8203C108.074 56.3566 108.5 54.9669 108.974 53.5766C108.358 54.9182 107.932 56.3326 107.813 57.8203ZM107.719 56.6742L107.742 56.6253L107.719 56.5521L107.695 56.6253L107.719 56.6742ZM107.055 56.9668C107.102 56.8447 107.15 56.7229 107.173 56.5763C107.481 55.1861 107.932 53.8201 108.548 52.5274C108.643 52.3569 108.761 52.1861 108.761 51.9669C108.879 51.9184 108.951 51.845 108.951 51.6743C108.809 51.7716 108.785 51.8693 108.785 51.9914C108.643 52.0643 108.595 52.1861 108.524 52.3327C107.932 53.4548 107.481 54.6495 107.197 55.9181C107.126 56.1861 107.031 56.4547 107.031 56.7474L107.055 56.9668ZM106.439 56.3816C106.51 56.3566 106.51 56.2837 106.51 56.2348C106.51 56.1374 106.557 56.1132 106.557 56.0155C106.557 55.9911 106.557 55.9421 106.51 55.9181V56.1616C106.463 56.2108 106.415 56.2595 106.415 56.3082L106.439 56.3816ZM106.131 57.6253C106.32 55.3082 107.102 53.3816 108.098 51.3569C107.078 52.6987 106.083 55.5277 106.083 57.0889C106.083 57.2837 106.107 57.4787 106.131 57.6253ZM105.538 54.9182V54.7474C105.491 54.7714 105.491 54.7714 105.491 54.8448L105.538 54.9182ZM114.116 74.9906C113.216 74.9906 112.292 74.8198 111.391 74.4783C110.847 74.2832 110.277 74.0882 109.756 73.7951C108.595 73.088 108.026 72.2346 107.956 70.7954C107.956 68.8201 109.875 66.9175 111.581 65.9418C111.747 65.8204 111.842 65.6736 111.842 65.4786C111.771 61.186 111.652 60.235 111.652 56.3082C111.7 53.7474 111.7 53.9422 111.842 51.4303C111.842 51.0401 112.102 50.6985 112.339 50.6985C112.458 50.6985 112.576 50.7474 112.695 50.845C112.979 51.0643 113.406 50.9914 113.595 51.3327L113.738 51.3082C113.951 51.3082 114.116 51.479 114.306 51.5277C114.804 51.6743 114.827 51.9669 114.827 52.4788C114.827 54.9421 114.519 57.43 114.14 59.9666C113.951 61.357 113.761 62.8691 113.761 64.4057C113.761 64.5275 113.808 64.6252 113.927 64.6252C114.662 64.4786 115.017 64.1618 115.775 64.1618C116.131 64.1618 116.462 64.2838 116.865 64.5518C116.629 64.7223 116.415 64.7223 116.202 64.7712C115.444 65.0149 114.733 65.381 114.046 65.7712C113.761 65.9418 113.666 66.1617 113.666 66.4786L113.643 69.747C113.643 70.1128 113.595 70.2833 113.429 70.2833C113.335 70.2833 113.193 70.2348 113.026 70.1614C112.955 70.1367 112.86 70.0638 112.79 70.0638C111.818 69.893 112.102 68.698 111.96 67.7712C111.913 67.6491 111.96 67.5515 111.818 67.5275C111.723 67.5275 111.652 67.6249 111.581 67.6981C110.657 68.6736 109.756 70.0151 109.756 71.4298C109.756 72.2099 109.969 72.9172 110.562 73.5272C111.083 74.0151 111.771 74.0635 112.458 74.0635C113.358 74.0635 114.259 73.8685 115.135 73.5025C119.283 71.7467 121.676 67.4296 123.121 62.9423C124.188 59.6739 125.159 55.6742 125.159 52.089C125.159 49.7719 124.733 47.1133 123.287 45.2109C123.027 44.8693 122.719 44.5765 122.41 44.2838C121.96 43.9183 121.628 43.8694 121.084 43.8694C117.955 43.8694 114.875 46.1622 112.813 48.4548C110.349 51.1621 108.595 54.5274 108.169 58.5031C108.098 59.0884 108.098 59.2594 107.647 59.2594C107.15 59.2594 106.77 59.04 106.178 58.7958C105.349 58.5521 105.254 57.7473 105.254 56.8934C105.254 56.4787 105.301 56.04 105.396 55.6255C106.439 50.3327 110.467 45.9672 115.017 43.7235C116.273 43.1133 117.529 42.7473 119.093 42.7235C119.993 42.7235 120.87 42.9183 121.699 43.2838C121.984 43.4306 122.268 43.5527 122.553 43.6501C126.51 45.0401 127.482 49.3572 127.482 53.2348C127.482 57.5763 126.202 62.5518 124.33 66.6007C122.34 70.8686 118.737 74.9906 114.116 74.9906Z" fill="white"/>
<path id="Vector_18" fill-rule="evenodd" clip-rule="evenodd" d="M134.902 59.7145H134.926V58.1778H134.902V59.7145ZM133.739 58.568C133.953 58.1044 134.19 57.6897 134.333 57.2266C134.309 57.2266 134.261 57.2026 134.238 57.1779C134.048 57.6168 133.835 58.0804 133.645 58.5191C133.692 58.5191 133.716 58.5438 133.739 58.568ZM132.482 61.0802C132.743 60.6655 132.981 60.2263 133.146 59.7629C133.123 59.7385 133.099 59.7385 133.075 59.7145C132.862 60.1532 132.624 60.5923 132.411 61.031C132.434 61.0555 132.458 61.0555 132.482 61.0802ZM131.201 61.592C131.201 61.6654 131.224 61.7628 131.343 61.7872H131.39C131.509 61.7872 131.557 61.6167 131.628 61.5188C132.553 60.1776 133.241 58.7146 133.906 57.2266C133.977 57.0805 134 56.9827 134 56.9095C134 56.7634 133.882 56.6901 133.621 56.6169C133.55 56.5927 133.478 56.5927 133.407 56.5927C133.265 56.5927 133.146 56.6414 133.004 56.739C132.648 57.0074 132.363 57.3487 132.126 57.7389C131.486 58.763 131.272 59.9095 131.224 61.1044V61.3728C131.224 61.4457 131.201 61.5188 131.201 61.592ZM129.635 59.3485C129.635 59.495 129.635 59.6656 129.659 59.8116C129.73 58.9827 129.896 58.2025 130.157 57.4463C129.801 58.056 129.635 58.6657 129.635 59.3485ZM129.587 56.739C129.825 56.3243 130.133 55.9588 130.536 55.6901C130.916 55.4222 131.32 55.2755 131.723 55.2755C132.031 55.2755 132.34 55.3736 132.648 55.5194C133.099 55.7391 133.55 55.9096 134.024 56.0809C134.119 56.1295 134.167 56.1538 134.238 56.1538C134.333 56.1538 134.38 56.0561 134.427 55.8609C134.499 55.617 134.522 55.3488 134.57 55.0809C134.594 54.8855 134.665 54.6663 134.76 54.471C134.807 54.3489 134.902 54.3003 134.997 54.3003C135.044 54.3003 135.092 54.3003 135.14 54.3489C135.353 54.5444 135.614 54.5444 135.851 54.6415C136.397 54.837 136.563 54.9589 136.563 55.3975C136.563 55.4952 136.563 55.5928 136.539 55.7149C136.468 56.3735 136.326 57.0074 136.254 57.6657C136.136 58.6657 136.065 59.6411 136.065 60.641C136.065 61.3972 136.112 62.1772 136.207 62.9332C136.231 63.226 136.326 63.5189 136.373 63.8115C136.397 63.8602 136.397 63.9091 136.397 63.9578C136.397 64.0797 136.326 64.1528 136.207 64.1528C136.183 64.1528 136.136 64.1528 136.088 64.1283C135.59 63.9578 135.14 63.787 134.973 63.1529C134.76 62.4456 134.641 61.7138 134.57 60.9825C134.522 60.5679 134.475 60.1287 134.475 59.7145V59.519C134.475 59.4703 134.475 59.3969 134.451 59.3485C134.451 59.2998 134.427 59.2264 134.356 59.2264C134.309 59.2264 134.261 59.2509 134.214 59.2998C134.19 59.373 134.143 59.4459 134.119 59.495C133.811 60.3973 133.407 61.2507 133.004 62.1285C132.862 62.4211 132.696 62.6898 132.506 62.9824C132.316 63.2992 132.055 63.4697 131.723 63.4697C131.652 63.4697 131.557 63.4697 131.462 63.446C130.987 63.3239 130.536 63.1529 130.109 62.9092C129.777 62.7387 129.587 62.4211 129.421 62.0801C129.16 61.4701 129.042 60.7876 128.994 60.1042V59.1777C128.994 58.3241 129.16 57.4952 129.587 56.739Z" fill="white"/>
<path id="Vector_19" fill-rule="evenodd" clip-rule="evenodd" d="M142.107 58.5459C141.682 59.1549 141.374 59.8366 141.161 60.5673C141.468 59.9099 141.823 59.228 142.107 58.5459ZM138.89 58.0834C138.89 58.5705 138.914 59.0575 138.938 59.5688C138.938 58.4728 138.985 57.4017 139.056 56.3299C138.938 56.9143 138.89 57.4987 138.89 58.0834ZM141.019 59.9585C141.658 58.424 142.462 57.0116 143.408 55.648C143.479 55.5752 143.526 55.4775 143.598 55.4047C143.81 55.1362 143.952 55.0392 144.141 55.0392C144.284 55.0392 144.425 55.0878 144.638 55.1853C144.97 55.3558 145.3 55.4775 145.608 55.5992C146.152 55.7941 146.412 56.1838 146.459 56.7682V56.9629C146.459 57.5473 146.389 58.1078 146.318 58.6678C146.27 59.301 146.223 59.9585 146.223 60.5918C146.223 61.0787 146.247 61.5903 146.294 62.0772C146.318 62.4669 146.389 62.8566 146.554 63.2221C146.578 63.2951 146.602 63.344 146.602 63.368C146.602 63.441 146.554 63.4659 146.507 63.4659C146.483 63.4659 146.459 63.441 146.412 63.441C145.845 63.3193 145.3 63.1488 145.04 62.54C144.875 62.1991 144.78 61.8339 144.733 61.4684C144.567 60.4699 144.52 59.4958 144.472 58.4972C144.449 58.0348 144.425 57.572 144.378 57.1095V57.0116C144.378 56.9629 144.378 56.8899 144.307 56.8659H144.26C144.165 56.8659 144.118 56.9385 144.07 57.0116C143.574 57.6448 143.124 58.3025 142.77 59.0333C142.628 59.301 142.509 59.5688 142.32 59.8126C142.273 59.861 142.225 59.9343 142.202 59.9829C141.823 60.9815 141.468 61.9556 141.114 62.9299C141.066 63.0269 141.043 63.1246 140.996 63.2221C140.83 63.5387 140.735 63.6602 140.522 63.6602C140.404 63.6602 140.286 63.6362 140.12 63.5629C140.002 63.5143 139.884 63.441 139.765 63.4168C139.245 63.2951 138.985 62.9052 138.819 62.4183C138.322 61.0543 138.157 59.6421 138.157 58.205V57.7667C138.157 57.304 138.18 56.841 138.252 56.4032C138.322 55.9402 138.441 55.7208 138.701 55.7208C138.819 55.7208 138.985 55.7697 139.174 55.8674C139.529 56.0377 139.907 56.1838 140.262 56.3052C140.617 56.4269 140.759 56.6707 140.806 57.0116C140.83 57.2551 140.854 57.4987 140.854 57.7667V58.0589C140.806 58.6433 140.759 59.228 140.735 59.8126C140.735 59.8855 140.712 59.9585 140.712 60.0318C140.712 60.1049 140.735 60.1777 140.759 60.2751C140.948 60.2265 140.972 60.0802 141.019 59.9585Z" fill="white"/>
<path id="Vector_20" fill-rule="evenodd" clip-rule="evenodd" d="M153.577 60.8304C153.223 61.2194 153.081 61.7303 152.916 62.2166C152.727 62.8735 152.468 63.5303 152.137 64.1381C152.114 64.1625 152.09 64.2113 152.09 64.2599C152.09 64.3087 152.09 64.3326 152.137 64.3814C152.302 64.0654 152.468 63.7977 152.609 63.5059C152.892 62.8735 153.058 62.2166 153.294 61.5844C153.388 61.3409 153.553 61.1223 153.577 60.8304C153.883 60.4169 154.19 60.0279 154.497 59.6146C154.119 59.955 153.718 60.2954 153.577 60.8304ZM149.164 55.5768C148.976 56.3796 148.881 57.2068 148.881 58.0576C148.881 58.3009 148.881 58.5686 148.905 58.836C148.928 57.7416 149.094 56.6714 149.164 55.5768ZM148.621 52.0501C148.621 51.7094 148.692 51.3934 148.857 51.1016C149.023 50.8098 149.235 50.688 149.471 50.688C149.589 50.688 149.707 50.7122 149.825 50.7607C150.132 50.8823 150.415 51.0287 150.721 51.1504C151.029 51.2473 151.194 51.4908 151.264 51.8068C151.288 51.9776 151.312 52.123 151.312 52.2931C151.312 52.7067 151.194 53.0958 150.91 53.4609C150.745 53.6797 150.556 53.8013 150.344 53.8013C150.273 53.8013 150.179 53.7771 150.108 53.7527C149.801 53.6797 149.518 53.5821 149.235 53.4367C148.857 53.2174 148.716 52.804 148.645 52.3904C148.621 52.2694 148.621 52.1476 148.621 52.0501ZM150.816 56.7444C150.746 57.6443 150.627 58.5198 150.556 59.4199C150.533 59.7359 150.533 60.0518 150.533 60.3686C150.533 61.3409 150.604 62.3145 150.792 63.2627C150.839 63.6035 150.958 63.919 151.075 64.2599C151.17 64.4544 151.217 64.5517 151.288 64.5517C151.359 64.5517 151.43 64.479 151.547 64.3326C151.996 63.7978 152.302 63.1899 152.515 62.5331C152.586 62.2654 152.68 61.998 152.774 61.7545C153.152 60.5386 153.954 59.6385 154.827 58.7877C154.875 58.7628 154.945 58.7389 155.04 58.7389C155.252 58.7389 155.512 58.8116 155.583 58.9092C155.606 58.9331 155.606 58.9577 155.606 58.9821C155.606 59.0063 155.606 59.0307 155.583 59.0307C155.417 59.1764 155.393 59.4199 155.252 59.5658C154.969 59.8818 154.709 60.2468 154.497 60.6118C154.308 60.9522 154.214 61.3409 154.049 61.7059C153.766 62.363 153.624 63.0682 153.365 63.725C153.199 64.2113 152.987 64.6732 152.704 65.1112C152.491 65.4274 152.256 65.549 151.948 65.549C151.878 65.549 151.784 65.549 151.689 65.5248C150.58 65.2571 149.707 64.6976 149.188 63.6035C148.716 62.5816 148.48 61.4873 148.315 60.3686C148.22 59.6875 148.197 59.0063 148.197 58.3253C148.197 57.4986 148.244 56.647 148.386 55.796C148.409 55.6742 148.433 55.5768 148.456 55.4553C148.527 55.1877 148.645 55.0418 148.834 55.0418C148.905 55.0418 148.976 55.0662 149.07 55.0906C149.565 55.2606 150.061 55.4797 150.556 55.6984C150.745 55.7716 150.816 55.9416 150.816 56.1363V56.7444Z" fill="white"/>
</g>
</svg>
