<svg width="86" height="59" viewBox="0 0 86 59" fill="none" xmlns="http://www.w3.org/2000/svg">
<path fill-rule="evenodd" clip-rule="evenodd" d="M6.21111 0.00953458H79.7889C82.5791 0.00953458 84.1271 1.83064 84.1749 1.83064C85.3025 2.95572 86 4.50032 86 6.20701V52.8025C86 54.5092 85.3025 56.0538 84.1749 57.1789C84.1367 57.1789 82.5791 59 79.7889 59H6.21111C3.42089 59 1.86333 57.1789 1.82511 57.1789C0.697556 56.0538 0 54.5092 0 52.8025V6.19748C0 4.49079 0.697556 2.94619 1.82511 1.82111C1.86333 1.82111 3.42089 0 6.21111 0V0.00953458ZM36.1104 31.6167L6.32578 55.6915H79.6838L49.8896 31.6167L44.0416 36.3458C43.4204 36.8512 42.5413 36.8321 41.9489 36.3363L36.1104 31.6167ZM3.47822 53.756L33.4922 29.5L3.47822 5.24402C3.37311 5.54913 3.31578 5.86377 3.31578 6.19748V52.793C3.31578 53.1267 3.37311 53.4509 3.47822 53.7464V53.756ZM52.5078 29.5L82.5218 53.756C82.6269 53.4509 82.6842 53.1362 82.6842 52.8025V6.19748C82.6842 5.86377 82.6269 5.53959 82.5218 5.24402L52.5078 29.5ZM6.32578 3.3085L43.0096 32.9515L79.6838 3.3085H6.32578Z" fill="#262626"/>
</svg>
