<svg width="32" height="34" viewBox="0 0 32 34" fill="none" xmlns="http://www.w3.org/2000/svg">
<path d="M19.7327 24.4956C19.676 26.6408 19.4442 28.7604 18.7358 30.8078C18.4035 31.7685 17.9591 32.6758 17.1721 33.3841C16.2599 34.2051 15.5016 34.2132 14.584 33.3632C13.6083 32.4599 13.144 31.2753 12.8062 30.0563C12.1553 27.706 11.9782 25.2943 12.024 22.8758C12.0623 20.8547 13.8244 19.2451 15.8702 19.233C17.8702 19.2215 19.5488 20.7083 19.7245 22.6856C19.7779 23.2846 19.7327 23.8918 19.7327 24.4956Z" fill="white"/>
<path d="M11.9966 14.415C11.9864 12.2927 13.8202 10.5725 16.0691 10.5954C18.0281 10.615 19.7901 12.3825 19.81 14.3496C19.8312 16.4078 18.037 18.1456 15.8865 18.1503C13.7662 18.155 12.0069 16.4652 11.9966 14.415Z" fill="white"/>
<path d="M31.916 13.7757C31.1091 5.79042 23.6349 -0.345775 15.1344 0.0151376C6.74467 0.372003 -0.0231881 7.21248 5.97139e-05 15.3941C0.0233076 23.5291 6.26878 28.8551 10.9806 29.9891C10.8329 29.2963 10.7098 28.6001 10.6093 27.9012C10.4233 27.6685 10.1519 27.4823 9.77989 27.3103C4.50057 24.8668 1.38399 19.0302 2.3057 13.4755C3.57271 5.83764 10.9115 0.935296 18.8425 2.42887C26.1813 3.81046 31.1529 11.1684 29.4886 18.1923C28.4568 22.5449 25.8319 25.673 21.6691 27.6152C21.5078 27.6901 21.304 27.715 21.185 27.852C21.0831 28.6082 20.9532 29.3604 20.7898 30.1078C26.2216 28.7687 32.8233 22.7526 31.9166 13.7757H31.916Z" fill="white"/>
<path d="M26.0698 13.2239C24.8896 8.4794 20.4376 5.29999 15.2452 5.45043C10.5245 5.58737 6.30362 9.16817 5.42635 13.7568C4.49986 18.6025 7.53644 22.8235 10.2681 24.0769C10.2339 23.2255 10.2243 22.3729 10.2352 21.5195C10.1942 21.4601 10.1422 21.4007 10.0787 21.34C8.50601 19.8485 7.6855 18.0338 7.53644 15.9081C7.17746 10.8014 12.3583 6.49674 17.5323 7.63682C20.7487 8.34515 22.9587 10.1888 23.8811 13.2495C24.8192 16.3621 24.0034 19.1051 21.5946 21.39C21.5747 21.4088 21.5528 21.4264 21.5303 21.4439C21.5501 22.1327 21.5105 22.8255 21.5105 23.5156C21.5057 23.7038 21.4995 23.8927 21.4927 24.0809C24.6578 22.4275 27.2479 17.9589 26.0698 13.2239Z" fill="white"/>
</svg>
