<svg width="41" height="32" viewBox="0 0 41 32" fill="none" xmlns="http://www.w3.org/2000/svg">
<path d="M34.7311 2.67976C32.0769 1.42772 29.2391 0.517763 26.2723 0C25.9079 0.663997 25.482 1.55742 25.1889 2.26844C22.0349 1.79047 18.9102 1.79047 15.8142 2.26844C15.5205 1.55794 15.0854 0.664514 14.7179 0C11.748 0.518279 8.90668 1.43134 6.25295 2.68647C0.899363 10.8425 -0.551529 18.796 0.174173 26.6369C3.72478 29.3099 7.16572 30.934 10.5482 31.9969C11.3836 30.8379 12.1283 29.606 12.7699 28.3075C11.5476 27.8393 10.377 27.2616 9.27107 26.5904C9.56473 26.3713 9.85174 26.1418 10.129 25.9062C16.8751 29.0877 24.2054 29.0877 30.871 25.9062C31.1513 26.1418 31.4383 26.3713 31.7289 26.5904C30.6193 27.2647 29.4457 27.8424 28.2234 28.3106C28.865 29.6055 29.6066 30.841 30.4451 32C33.8312 30.9371 37.2752 29.3135 40.8258 26.6369C41.677 17.5476 39.3713 9.66748 34.7311 2.68027V2.67976ZM13.6893 21.8148C11.6639 21.8148 10.0034 19.9085 10.0034 17.5874C10.0034 15.2662 11.6286 13.3564 13.6893 13.3564C15.7501 13.3564 17.4106 15.2626 17.3753 17.5874C17.3783 19.9085 15.7501 21.8148 13.6893 21.8148ZM27.3111 21.8148C25.2857 21.8148 23.6252 19.9085 23.6252 17.5874C23.6252 15.2662 25.2504 13.3564 27.3111 13.3564C29.3719 13.3564 31.0324 15.2626 30.997 17.5874C30.997 19.9085 29.3719 21.8148 27.3111 21.8148Z" fill="white"/>
</svg>
