<svg width="32" height="32" viewBox="0 0 32 32" fill="none" xmlns="http://www.w3.org/2000/svg">
<g clip-path="url(#clip0_666_1743)">
<path d="M9.37345 0.110743C7.67105 0.191063 6.50817 0.463703 5.49217 0.861783C4.44033 1.2717 3.54881 1.82146 2.66177 2.71202C1.77377 3.60322 1.22849 4.49634 0.821447 5.54914C0.427527 6.5677 0.160327 7.73122 0.0854474 9.43458C0.0105674 11.1415 -0.00639256 11.6858 0.00192744 16.0307C0.0102474 20.3751 0.0294474 20.9203 0.110727 22.6275C0.192007 24.3296 0.463687 25.4919 0.861767 26.5085C1.27233 27.5603 1.82145 28.4515 2.71233 29.3389C3.60289 30.2263 4.49665 30.7712 5.55009 31.1786C6.56769 31.5722 7.73153 31.84 9.43457 31.9146C11.1411 31.9898 11.6861 32.0064 16.0298 31.9981C20.3754 31.9898 20.9203 31.9706 22.6269 31.8896C24.3293 31.8083 25.4909 31.5357 26.5082 31.1386C27.56 30.7271 28.4515 30.1789 29.3386 29.288C30.2256 28.3975 30.7709 27.5037 31.1779 26.4503C31.5718 25.4327 31.84 24.2688 31.9139 22.5667C31.9885 20.8592 32.0061 20.3136 31.9978 15.9696C31.9894 11.625 31.9699 11.0807 31.889 9.37442C31.808 7.67106 31.5354 6.50914 31.1379 5.49218C30.7267 4.44034 30.1782 3.54978 29.2877 2.66178C28.3971 1.77474 27.5034 1.2285 26.4499 0.822423C25.4317 0.428503 24.2685 0.160023 22.5654 0.0864226C20.8592 0.0102626 20.3146 -0.00637737 15.9693 0.00194263C11.625 0.0102626 11.0803 0.0288226 9.37377 0.110743M9.56033 29.0349C8.00033 28.9671 7.15329 28.7079 6.58881 28.4906C5.84129 28.2013 5.30785 27.8544 4.74625 27.2973C4.18593 26.7379 3.83809 26.2061 3.54625 25.4602C3.32705 24.8957 3.06305 24.0496 2.99009 22.4896C2.91073 20.8032 2.89249 20.2973 2.88481 16.025C2.87649 11.7539 2.89217 11.2477 2.96577 9.56002C3.03265 8.0013 3.29345 7.15298 3.51009 6.58914C3.79937 5.84066 4.14497 5.30818 4.70337 4.74658C5.26273 4.1853 5.79457 3.83842 6.54113 3.54658C7.10529 3.3261 7.95105 3.06434 9.51041 2.99042C11.1978 2.91042 11.7034 2.89346 15.9744 2.88514C20.2464 2.87682 20.7526 2.89186 22.4403 2.9661C23.999 3.03394 24.8474 3.29218 25.4109 3.51042C26.159 3.7997 26.6925 4.14434 27.2534 4.7037C27.8144 5.26306 28.1622 5.79394 28.4541 6.5421C28.6742 7.10466 28.9363 7.9517 29.0099 9.51042C29.0902 11.1978 29.1085 11.7037 29.1162 15.9751C29.1245 20.2474 29.1088 20.7533 29.0349 22.44C28.967 24 28.7082 24.8474 28.4906 25.4125C28.2013 26.1594 27.8554 26.6928 27.2966 27.2544C26.7379 27.8138 26.2061 28.1626 25.4589 28.4544C24.896 28.6743 24.049 28.9367 22.4906 29.0106C20.8032 29.0899 20.2976 29.1082 16.025 29.1159C11.7539 29.1242 11.2483 29.1082 9.56065 29.0349M22.6035 7.44738C22.6054 8.5069 23.4672 9.36482 24.5267 9.3629C25.5869 9.36098 26.4448 8.49986 26.4432 7.44002C26.441 6.3805 25.5795 5.52194 24.5194 5.52386C23.4592 5.52578 22.6013 6.38754 22.6032 7.44706M7.78465 16.0157C7.79329 20.5533 11.4787 24.2237 16.0154 24.2147C20.5523 24.2058 24.2246 20.5216 24.216 15.984C24.207 11.448 20.5213 7.7757 15.9837 7.78434C11.447 7.7933 7.77569 11.4791 7.78465 16.0157ZM10.6666 16.0099C10.6614 13.065 13.0451 10.6723 15.9894 10.6672C18.9344 10.6615 21.3274 13.0442 21.3331 15.9898C21.3389 18.9354 18.9552 21.3274 16.0096 21.3331C13.065 21.3389 10.672 18.9559 10.6666 16.0103" fill="white"/>
</g>
<defs>
<clipPath id="clip0_666_1743">
<rect width="32" height="32" fill="white"/>
</clipPath>
</defs>
</svg>
