<svg width="112" height="25" viewBox="0 0 112 25" fill="none" xmlns="http://www.w3.org/2000/svg">
<g clip-path="url(#clip0_449_561)">
<path d="M34.9743 3.90404C34.5626 2.36653 33.3542 1.15828 31.8164 0.746707C29.0291 0 17.8591 0 17.8591 0C17.8591 0 6.68907 0 3.90465 0.746707C2.3669 1.15828 1.15846 2.36653 0.746823 3.90404C0 6.68803 0 12.5 0 12.5C0 12.5 0 18.312 0.746823 21.096C1.15846 22.6335 2.3669 23.8417 3.90465 24.2533C6.68907 25 17.8591 25 17.8591 25C17.8591 25 29.0291 25 31.8135 24.2533C33.3513 23.8417 34.5597 22.6335 34.9713 21.096C35.7182 18.312 35.7182 12.5 35.7182 12.5C35.7182 12.5 35.7182 6.68803 34.9713 3.90404H34.9743ZM14.2867 17.8563V7.1437L23.5661 12.5L14.2867 17.8563Z" fill="white"/>
<path d="M51.8484 22.7423C51.1427 22.266 50.6399 21.5252 50.34 20.5198C50.0431 19.5144 49.8931 18.1797 49.8931 16.5099V14.2374C49.8931 12.5529 50.0636 11.1977 50.4047 10.1776C50.7458 9.15747 51.278 8.41076 52.0013 7.94333C52.7246 7.47591 53.6743 7.24072 54.8504 7.24072C56.0265 7.24072 56.935 7.47885 57.6348 7.95509C58.3316 8.43134 58.8432 9.17805 59.1666 10.1893C59.4901 11.2036 59.6518 12.5529 59.6518 14.2374V16.5099C59.6518 18.1797 59.493 19.5202 59.1784 20.5315C58.8638 21.5458 58.3522 22.2866 57.6465 22.754C56.9409 23.2214 55.9824 23.4566 54.7739 23.4566C53.5655 23.4566 52.557 23.2185 51.8484 22.7423ZM55.8089 20.2905C56.0029 19.7789 56.1029 18.947 56.1029 17.7887V12.9116C56.1029 11.7886 56.0059 10.9654 55.8089 10.448C55.6119 9.92769 55.2679 9.66899 54.7739 9.66899C54.2799 9.66899 53.9595 9.92769 53.7654 10.448C53.5684 10.9684 53.4714 11.7886 53.4714 12.9116V17.7887C53.4714 18.947 53.5655 19.7819 53.7536 20.2905C53.9418 20.802 54.2799 21.0577 54.7739 21.0577C55.2679 21.0577 55.6119 20.802 55.8089 20.2905Z" fill="white"/>
<path d="M106.102 16.5481V17.3389C106.102 18.3443 106.131 19.0969 106.19 19.5996C106.249 20.1023 106.372 20.4668 106.561 20.6991C106.749 20.9284 107.037 21.043 107.428 21.043C107.954 21.043 108.319 20.8372 108.513 20.4286C108.71 20.02 108.816 19.3379 108.833 18.3855L111.874 18.5648C111.891 18.7 111.9 18.8882 111.9 19.1263C111.9 20.5727 111.503 21.6545 110.712 22.3689C109.921 23.0832 108.801 23.4419 107.354 23.4419C105.617 23.4419 104.399 22.898 103.703 21.8074C103.003 20.7167 102.656 19.0322 102.656 16.7509V14.0169C102.656 11.668 103.018 9.95119 103.741 8.86935C104.464 7.7875 105.702 7.24658 107.457 7.24658C108.666 7.24658 109.595 7.46707 110.242 7.91098C110.889 8.35488 111.344 9.0428 111.609 9.98059C111.874 10.9184 112.006 12.2119 112.006 13.8641V16.5451H106.105L106.102 16.5481ZM106.549 9.96001C106.369 10.1805 106.252 10.5421 106.19 11.0448C106.131 11.5475 106.102 12.3089 106.102 13.332V14.455H108.68V13.332C108.68 12.3265 108.645 11.5651 108.578 11.0448C108.51 10.5245 108.386 10.1599 108.207 9.94531C108.028 9.73365 107.751 9.62488 107.378 9.62488C107.005 9.62488 106.725 9.73659 106.549 9.95707V9.96001Z" fill="white"/>
<path d="M43.2628 16.2573L39.2523 1.77588H42.7512L44.1567 8.34044C44.5154 9.95732 44.777 11.3361 44.9476 12.4767H45.0505C45.1681 11.6595 45.4327 10.2895 45.8414 8.36396L47.2968 1.77588H50.7957L46.7353 16.2573V23.204H43.2599V16.2573H43.2628Z" fill="white"/>
<path d="M71.0335 7.54639V23.2037H68.2755L67.9698 21.287H67.8933C67.1435 22.7334 66.0204 23.4565 64.5208 23.4565C63.4829 23.4565 62.7155 23.1155 62.2216 22.4364C61.7276 21.7544 61.4806 20.6902 61.4806 19.2438V7.54639H65.006V19.038C65.006 19.7377 65.0824 20.2345 65.2353 20.5315C65.3882 20.8284 65.644 20.9783 66.0027 20.9783C66.3085 20.9783 66.6025 20.8842 66.8848 20.6961C67.1671 20.5079 67.3729 20.2698 67.5111 19.9817V7.54639H71.0364H71.0335Z" fill="white"/>
<path d="M89.1131 7.54639V23.2037H86.3551L86.0493 21.287H85.9729C85.2231 22.7334 84.1 23.4565 82.6004 23.4565C81.5625 23.4565 80.7951 23.1155 80.3012 22.4364C79.8072 21.7544 79.5602 20.6902 79.5602 19.2438V7.54639H83.0856V19.038C83.0856 19.7377 83.162 20.2345 83.3149 20.5315C83.4678 20.8284 83.7236 20.9783 84.0823 20.9783C84.3881 20.9783 84.6821 20.8842 84.9644 20.6961C85.2467 20.5079 85.4525 20.2698 85.5907 19.9817V7.54639H89.116H89.1131Z" fill="white"/>
<path d="M80.6099 4.60984H77.111V23.204H73.6621V4.60984H70.1632V1.77588H80.6099V4.60984Z" fill="white"/>
<path d="M100.78 10.0483C100.565 9.06048 100.221 8.34612 99.745 7.90221C99.2687 7.4583 98.613 7.23781 97.778 7.23781C97.1311 7.23781 96.5255 7.42008 95.9639 7.78755C95.4023 8.15503 94.9671 8.63421 94.6613 9.23099H94.6349V0.981934H91.2389V23.2009H94.1497L94.5084 21.7192H94.5849C94.8583 22.2484 95.267 22.6629 95.811 22.9716C96.3549 23.2773 96.9606 23.4302 97.6251 23.4302C98.8159 23.4302 99.6951 22.8805 100.257 21.7839C100.818 20.6844 101.1 18.9705 101.1 16.6363V14.1581C101.1 12.406 100.995 11.0331 100.78 10.0453V10.0483ZM97.5487 16.4335C97.5487 17.5741 97.5016 18.4678 97.4075 19.1146C97.3135 19.7613 97.1576 20.2229 96.9342 20.4933C96.7136 20.7667 96.4137 20.902 96.0403 20.902C95.7492 20.902 95.4817 20.8344 95.2347 20.6962C94.9877 20.561 94.7878 20.3552 94.6349 20.0847V11.1977C94.7525 10.7714 94.9583 10.4245 95.2494 10.1511C95.5375 9.87775 95.8551 9.74252 96.1932 9.74252C96.5519 9.74252 96.8283 9.88363 97.0224 10.1629C97.2194 10.4451 97.3546 10.9155 97.4311 11.5799C97.5075 12.2443 97.5457 13.188 97.5457 14.4138V16.4305L97.5487 16.4335Z" fill="white"/>
</g>
<defs>
<clipPath id="clip0_449_561">
<rect width="112" height="25" fill="white"/>
</clipPath>
</defs>
</svg>
