<svg width="48" height="48" viewBox="0 0 48 48" fill="none" xmlns="http://www.w3.org/2000/svg">
<path d="M48 23.8026L36 44.6053H12L0 23.8026L12 3L36 3L48 23.8026Z" fill="#FE3652"/>
<path d="M30.1563 14.2106C31.8131 14.2106 33.1562 15.5374 33.1562 17.1741V23.1013C33.1562 24.738 31.8131 26.0648 30.1563 26.0648C31.8131 26.0648 33.1562 27.3917 33.1562 29.0284V33.4589H28.6563V29.0284C28.6563 27.3917 27.3131 26.0648 25.6562 26.0648H15.1562V24.583C15.1562 22.9463 16.4994 21.6195 18.1563 21.6195H28.6563V18.6559H15.1562V14.2106H30.1563Z" fill="white"/>
<path d="M15.1562 29.0284H19.6562V33.4737H15.1562V29.0284Z" fill="white"/>
</svg>
